<svg xmlns="http://www.w3.org/2000/svg" width="1200" height="620"><defs><marker id="arrow" markerWidth="8" markerHeight="8" refX="7" refY="4" orient="auto"><path d="M0 0 L8 4 L0 8z" fill="#586C7D"/></marker></defs><rect width="1200" height="620" fill="white"/><path d="M190 135 L440 275" stroke="#586C7D" stroke-width="3" marker-end="url(#arrow)"/><path d="M605 135 L605 230" stroke="#586C7D" stroke-width="3" marker-end="url(#arrow)"/><path d="M1015 135 L770 275" stroke="#586C7D" stroke-width="3" marker-end="url(#arrow)"/><path d="M510 345 L235 460" stroke="#586C7D" stroke-width="3" marker-end="url(#arrow)"/><path d="M605 345 L605 460" stroke="#586C7D" stroke-width="3" marker-end="url(#arrow)"/><path d="M770 515 L855 515" stroke="#586C7D" stroke-width="3" marker-end="url(#arrow)"/><rect x="25" y="30" width="330" height="105" rx="10" fill="#EFF3F6" stroke="#8093A3"/><text x="190.0" y="68" text-anchor="middle" font-family="Arial" font-weight="bold" font-size="23">Browser and Android</text><text x="190.0" y="106" text-anchor="middle" font-family="Arial" font-size="18">Untrusted client boundary</text><rect x="440" y="30" width="330" height="105" rx="10" fill="#EFF3F6" stroke="#8093A3"/><text x="605.0" y="68" text-anchor="middle" font-family="Arial" font-weight="bold" font-size="23">Identity provider</text><text x="605.0" y="106" text-anchor="middle" font-family="Arial" font-size="18">Verified identity only</text><rect x="855" y="30" width="320" height="105" rx="10" fill="#EFF3F6" stroke="#8093A3"/><text x="1015.0" y="68" text-anchor="middle" font-family="Arial" font-weight="bold" font-size="23">Support and operators</text><text x="1015.0" y="106" text-anchor="middle" font-family="Arial" font-size="18">Independent privileged custody</text><rect x="440" y="230" width="330" height="115" rx="10" fill="#EFF3F6" stroke="#8093A3"/><text x="605.0" y="268" text-anchor="middle" font-family="Arial" font-weight="bold" font-size="23">API and domain policy</text><text x="605.0" y="306" text-anchor="middle" font-family="Arial" font-size="18">Tenant, scope, purpose, revision</text><rect x="25" y="460" width="330" height="110" rx="10" fill="#EFF3F6" stroke="#8093A3"/><text x="190.0" y="498" text-anchor="middle" font-family="Arial" font-weight="bold" font-size="23">Database and object store</text><text x="190.0" y="536" text-anchor="middle" font-family="Arial" font-size="18">Tenant isolation and quarantine</text><rect x="440" y="460" width="330" height="110" rx="10" fill="#EFF3F6" stroke="#8093A3"/><text x="605.0" y="498" text-anchor="middle" font-family="Arial" font-weight="bold" font-size="23">Workers and outbox</text><text x="605.0" y="536" text-anchor="middle" font-family="Arial" font-size="18">Fresh authority and lease fence</text><rect x="855" y="460" width="320" height="110" rx="10" fill="#EFF3F6" stroke="#8093A3"/><text x="1015.0" y="498" text-anchor="middle" font-family="Arial" font-weight="bold" font-size="23">External providers</text><text x="1015.0" y="536" text-anchor="middle" font-family="Arial" font-size="18">Qualified egress and contracts</text></svg>